<?xml version="1.0" standalone="no"?>
<!DOCTYPE svg PUBLIC "-//W3C//DTD SVG 20010904//EN"
 "http://www.w3.org/TR/2001/REC-SVG-20010904/DTD/svg10.dtd">
<svg version="1.0" xmlns="http://www.w3.org/2000/svg"
 width="512.000000pt" height="512.000000pt" viewBox="0 0 512.000000 512.000000"
 preserveAspectRatio="xMidYMid meet">
<metadata>
Created by potrace 1.15, written by Peter Selinger 2001-2017
</metadata>
<g transform="translate(0.000000,512.000000) scale(0.100000,-0.100000)"
fill="#ff4172" stroke="none">
<path d="M2439 3930 c-294 -75 -487 -347 -449 -633 32 -233 189 -537 334 -647
86 -65 150 -90 233 -90 111 0 198 42 296 145 174 181 306 530 277 733 -30 213
-173 390 -378 469 -53 21 -88 26 -172 29 -58 2 -121 -1 -141 -6z m283 -189
c120 -46 216 -171 239 -309 34 -213 -139 -594 -309 -681 -86 -44 -186 -19
-268 66 -145 148 -255 453 -225 619 30 159 145 287 294 325 59 15 207 4 269
-20z"/>
<path d="M1145 3546 c-163 -41 -302 -168 -361 -330 -93 -258 106 -740 354
-854 76 -35 166 -36 235 -2 169 81 340 360 377 618 24 163 -28 314 -149 433
-128 125 -295 175 -456 135z m256 -188 c71 -33 134 -98 161 -168 63 -161 -17
-453 -167 -607 -102 -104 -174 -105 -276 -3 -68 67 -139 205 -170 329 -29 115
-24 234 13 307 28 53 86 112 137 139 83 42 214 44 302 3z"/>
<path d="M3753 3546 c-78 -19 -157 -62 -219 -118 -135 -124 -193 -286 -164
-459 43 -258 201 -518 365 -601 127 -65 252 -35 374 90 196 201 301 553 227
758 -89 245 -342 388 -583 330z m249 -184 c206 -91 246 -339 101 -632 -33 -67
-63 -111 -103 -151 -101 -101 -173 -100 -275 4 -107 110 -186 300 -188 457 -2
103 11 152 60 217 43 59 85 90 156 115 66 24 184 19 249 -10z"/>
<path d="M2340 2331 c-171 -37 -340 -121 -485 -240 l-72 -60 -84 44 c-136 71
-239 97 -405 102 -207 8 -361 -29 -523 -124 -79 -47 -218 -176 -276 -257 -110
-156 -175 -347 -175 -516 0 -73 2 -80 26 -99 35 -27 76 -27 109 2 23 20 26 33
35 123 11 125 46 236 104 335 171 291 557 445 872 348 68 -21 204 -84 204 -95
0 -3 -11 -20 -24 -37 -37 -49 -102 -184 -130 -269 -30 -93 -42 -158 -52 -271
l-7 -86 32 -32 c28 -27 37 -31 69 -26 48 8 72 38 72 91 0 22 6 82 14 131 55
364 299 646 653 751 165 49 400 44 564 -11 359 -122 596 -436 625 -827 6 -77
11 -96 30 -115 53 -52 144 -5 144 74 -2 182 -79 431 -179 577 -17 24 -31 47
-31 50 0 3 30 21 68 40 204 103 415 111 628 26 106 -42 198 -105 281 -194 123
-128 187 -274 203 -461 8 -90 11 -102 35 -122 33 -29 74 -29 109 -2 24 19 26
26 26 99 0 232 -112 475 -301 656 -110 104 -215 164 -366 211 -82 25 -101 27
-268 27 -168 0 -186 -2 -270 -28 -49 -15 -128 -47 -174 -71 l-85 -44 -44 37
c-174 147 -347 233 -542 268 -107 19 -306 17 -410 -5z"/>
</g>
</svg>
