<?xml version="1.0" standalone="no"?>
<!DOCTYPE svg PUBLIC "-//W3C//DTD SVG 20010904//EN"
 "http://www.w3.org/TR/2001/REC-SVG-20010904/DTD/svg10.dtd">
<svg version="1.0" xmlns="http://www.w3.org/2000/svg"
 width="128.000000pt" height="128.000000pt" viewBox="0 0 128.000000 128.000000"
 preserveAspectRatio="xMidYMid meet">
<metadata>
Created by potrace 1.15, written by Peter Selinger 2001-2017
</metadata>
<g transform="translate(0.000000,128.000000) scale(0.100000,-0.100000)"
fill="#ff4172" stroke="none">
<path d="M218 1028 c-77 -53 -139 -102 -142 -113 -10 -35 -7 -702 4 -729 16
-43 50 -33 179 55 l118 81 121 -81 c67 -44 131 -81 142 -81 11 0 75 36 142 81
l121 81 116 -79 c130 -90 139 -94 164 -81 16 8 17 37 17 391 l-1 382 -137 93
c-75 50 -147 92 -160 92 -12 0 -76 -36 -142 -80 l-120 -80 -120 80 c-66 44
-130 80 -143 80 -13 0 -84 -41 -159 -92z m320 -113 l62 -40 0 -128 0 -127 -24
6 c-18 4 -27 1 -35 -15 -9 -16 -8 -22 8 -31 11 -5 27 -10 35 -10 14 0 16 -20
16 -140 0 -77 -2 -140 -5 -140 -3 0 -43 25 -90 57 l-85 56 0 139 c0 114 3 143
17 165 16 24 16 26 0 38 -14 10 -17 31 -17 130 l0 117 29 -19 c15 -10 56 -36
89 -58z m295 -209 c-24 -20 -25 -26 -14 -40 7 -9 20 -16 27 -16 11 0 14 -25
14 -123 l0 -124 -85 -56 c-47 -32 -87 -57 -90 -57 -3 0 -5 58 -5 130 0 103 3
131 15 137 9 5 12 17 9 31 -4 12 -10 19 -15 16 -5 -3 -9 55 -9 133 l0 138 88
57 87 58 3 -130 3 -130 -28 -24z m277 -122 l0 -295 -77 54 -78 55 -3 171 c-2
112 1 171 8 171 5 0 10 11 10 25 0 14 -4 25 -10 25 -6 0 -10 40 -10 99 l0 100
80 -55 80 -55 0 -295z m-780 279 c0 -75 -4 -113 -9 -104 -8 12 -14 13 -36 3
-38 -18 -30 -47 13 -45 l32 1 -2 -160 -3 -160 -82 -59 -83 -59 0 295 0 294 78
55 c42 31 80 56 85 56 4 0 7 -53 7 -117z"/>
</g>
</svg>
