<?xml version="1.0" standalone="no"?>
<!DOCTYPE svg PUBLIC "-//W3C//DTD SVG 20010904//EN"
 "http://www.w3.org/TR/2001/REC-SVG-20010904/DTD/svg10.dtd">
<svg version="1.0" xmlns="http://www.w3.org/2000/svg"
 width="512.000000pt" height="512.000000pt" viewBox="0 0 512.000000 512.000000"
 preserveAspectRatio="xMidYMid meet">
<metadata>
Created by potrace 1.15, written by Peter Selinger 2001-2017
</metadata>
<g transform="translate(0.000000,512.000000) scale(0.100000,-0.100000)"
fill="#323545" stroke="none">
<path d="M2526 4824 c-3 -9 -6 -109 -6 -224 0 -208 0 -208 -23 -214 -35 -8
-88 -69 -98 -112 -4 -22 -9 -71 -9 -110 0 -65 -2 -72 -31 -100 -24 -23 -54
-65 -73 -101 -1 -1 -47 -11 -103 -23 -528 -109 -976 -441 -1246 -922 -210
-375 -278 -840 -187 -1275 46 -222 166 -496 297 -683 88 -124 319 -355 443
-442 489 -345 1118 -432 1690 -233 134 47 329 147 450 233 112 79 287 245 377
357 308 383 452 898 388 1388 -54 412 -228 768 -520 1063 -220 223 -451 366
-746 463 -76 25 -261 70 -291 71 -3 0 -18 20 -32 45 -15 25 -40 55 -56 67 -30
21 -30 23 -30 115 0 63 -5 103 -15 122 -17 34 -70 81 -91 81 -12 0 -14 35 -14
213 0 152 -3 216 -12 225 -17 17 -55 15 -62 -4z m98 -535 c22 -26 26 -40 26
-92 l0 -62 -90 0 -90 0 0 66 c0 58 3 69 26 93 39 38 93 36 128 -5z m29 -245
c68 -35 110 -94 123 -175 7 -39 6 -42 -12 -34 -105 44 -123 48 -204 48 -81 0
-100 -5 -202 -48 -22 -9 -24 18 -7 80 14 52 92 128 145 143 48 14 114 8 157
-14z m-383 -214 c0 -42 -6 -57 -37 -97 -50 -67 -81 -138 -89 -208 -6 -52 -13
-67 -51 -110 -52 -59 -117 -188 -132 -263 -7 -35 -11 -275 -11 -710 l0 -658
-39 -38 c-33 -33 -67 -91 -85 -148 -5 -16 -23 -18 -190 -18 -173 0 -186 -1
-196 -19 -6 -12 -10 -112 -10 -255 0 -221 -1 -236 -18 -236 -36 0 -42 -20 -42
-138 l0 -113 -27 21 c-54 41 -185 196 -254 299 -143 213 -238 451 -285 714
l-6 37 386 0 c364 0 389 1 425 20 140 71 147 272 12 348 l-39 22 5 84 c4 51 1
104 -7 137 -41 173 -176 308 -349 349 -67 16 -202 8 -255 -14 -22 -9 -41 -14
-43 -12 -7 7 32 90 88 188 241 421 674 742 1142 848 113 25 107 27 107 -30z
m749 13 c217 -55 463 -180 646 -326 65 -52 195 -179 246 -239 l39 -46 -58 -59
c-66 -66 -108 -144 -125 -230 -11 -59 -12 -60 -57 -76 -76 -27 -140 -105 -140
-171 0 -21 -6 -25 -42 -31 -58 -10 -89 -27 -126 -69 -80 -92 -56 -236 50 -296
l43 -25 417 -3 416 -3 8 -67 c8 -82 -10 -307 -35 -427 -73 -344 -253 -674
-496 -908 l-50 -49 -5 119 -5 118 -32 10 -33 9 -2 251 -3 250 -192 3 c-163 2
-193 5 -193 17 0 29 -43 105 -81 145 l-39 40 0 658 c0 719 -1 723 -60 846 -16
34 -51 88 -77 121 -40 50 -50 71 -59 126 -13 73 -48 152 -94 207 -25 30 -30
45 -30 90 l0 53 38 -7 c20 -4 79 -17 131 -31z m-318 -65 c89 -41 163 -128 193
-226 7 -21 4 -20 -64 14 -168 84 -373 84 -542 0 -65 -32 -68 -33 -62 -13 35
117 98 186 213 234 77 32 182 29 262 -9z m-6 -240 c135 -34 281 -154 343 -280
61 -124 62 -139 62 -825 l0 -623 -26 10 c-14 6 -54 10 -90 10 l-64 0 0 593 c0
325 -4 617 -9 648 -19 117 -87 210 -193 266 -48 26 -62 28 -158 28 -89 0 -112
-4 -151 -23 -65 -32 -124 -85 -156 -139 -51 -88 -53 -110 -53 -765 l0 -608
-67 0 c-38 0 -78 -3 -90 -6 l-23 -6 0 625 c0 415 4 644 11 679 27 128 128 277
237 346 127 82 282 107 427 70z m-19 -266 c66 -34 101 -69 133 -134 l31 -61 0
-647 c0 -506 3 -650 13 -658 6 -5 55 -12 107 -14 83 -3 103 -8 143 -32 60 -34
102 -92 116 -157 6 -28 11 -162 11 -308 0 -227 2 -260 16 -265 9 -3 108 -6
220 -6 l204 0 0 -125 0 -124 -72 -52 c-158 -110 -205 -134 -288 -139 l-75 -5
-3 -31 c-3 -29 -8 -34 -75 -58 -203 -72 -367 -100 -602 -100 -230 0 -388 27
-592 100 -67 24 -72 29 -75 58 l-3 31 -76 5 c-68 5 -83 10 -155 53 -44 27
-111 71 -147 98 l-67 49 0 120 0 120 214 0 c161 0 216 3 224 13 7 8 12 115 14
297 3 270 4 287 25 325 51 94 126 134 255 135 76 0 89 3 98 19 6 13 10 239 10
663 0 604 2 645 19 684 35 77 103 136 191 165 41 14 142 3 186 -19z m1390
-204 c111 -179 193 -385 233 -585 12 -55 21 -108 21 -117 0 -14 -41 -16 -400
-16 -440 0 -444 1 -475 60 -31 60 -10 137 45 165 16 8 51 15 78 15 26 0 53 5
60 12 7 7 12 33 12 59 0 81 65 152 140 151 24 -1 42 4 44 11 2 7 8 41 13 77 6
36 21 87 33 113 25 54 105 147 125 147 8 0 40 -42 71 -92z m-2864 -289 c163
-35 281 -159 310 -326 10 -60 9 -80 -6 -142 -19 -78 -13 -101 26 -101 85 0
143 -118 92 -187 -45 -62 -52 -63 -460 -63 l-372 0 -7 80 c-13 147 10 358 60
550 27 103 36 115 117 156 84 43 151 52 240 33z m618 -1494 l0 -215 -155 0
-155 0 0 215 0 215 155 0 155 0 0 -215z m1790 0 l0 -215 -155 0 -155 0 0 215
0 215 155 0 155 0 0 -215z"/>
<path d="M2400 2841 c-13 -25 -13 -27 6 -45 12 -13 41 -16 153 -16 149 0 166
5 159 52 -3 23 -5 23 -155 26 -142 2 -153 1 -163 -17z"/>
<path d="M2400 2584 c-10 -11 -11 -20 -3 -32 9 -15 31 -17 164 -17 l154 0 0
30 0 30 -151 3 c-129 2 -153 0 -164 -14z"/>
<path d="M2406 2334 c-19 -18 -19 -20 -6 -45 10 -17 23 -19 150 -19 76 0 145
3 154 6 9 4 16 18 16 34 0 16 -7 30 -16 34 -9 3 -76 6 -149 6 -108 0 -137 -3
-149 -16z"/>
<path d="M2400 2074 c-10 -11 -11 -20 -3 -32 9 -15 31 -17 164 -17 l154 0 0
30 0 30 -151 3 c-129 2 -153 0 -164 -14z"/>
<path d="M2396 1815 c-3 -9 -1 -25 5 -36 9 -18 20 -19 162 -17 l152 3 0 30 0
30 -156 3 c-136 2 -157 0 -163 -13z"/>
<path d="M2400 1561 c-13 -25 -13 -27 6 -45 12 -13 41 -16 148 -16 145 0 170
8 164 51 l-3 24 -152 3 c-142 2 -153 1 -163 -17z"/>
<path d="M2400 1304 c-10 -11 -11 -20 -3 -32 9 -15 31 -17 164 -17 l154 0 0
30 0 30 -151 3 c-129 2 -153 0 -164 -14z"/>
<path d="M2406 1054 c-19 -18 -19 -20 -6 -45 10 -17 23 -19 150 -19 76 0 145
3 154 6 9 4 16 18 16 34 0 16 -7 30 -16 34 -9 3 -76 6 -149 6 -108 0 -137 -3
-149 -16z"/>
<path d="M1571 796 c-7 -8 -10 -24 -6 -36 6 -20 12 -20 163 -18 l157 3 0 30 0
30 -151 3 c-124 2 -153 0 -163 -12z"/>
<path d="M2400 794 c-10 -11 -11 -20 -3 -32 9 -15 31 -17 164 -17 l154 0 0 30
0 30 -151 3 c-129 2 -153 0 -164 -14z"/>
<path d="M3234 796 c-3 -8 -4 -23 -2 -33 3 -16 18 -18 154 -21 123 -2 153 0
163 12 9 11 10 20 1 35 -10 20 -19 21 -161 21 -121 0 -151 -3 -155 -14z"/>
<path d="M2396 535 c-3 -9 -1 -25 5 -36 9 -18 20 -19 162 -17 l152 3 0 30 0
30 -156 3 c-136 2 -157 0 -163 -13z"/>
</g>
</svg>
