<?xml version="1.0" standalone="no"?>
<!DOCTYPE svg PUBLIC "-//W3C//DTD SVG 20010904//EN"
 "http://www.w3.org/TR/2001/REC-SVG-20010904/DTD/svg10.dtd">
<svg version="1.0" xmlns="http://www.w3.org/2000/svg"
 width="512.000000pt" height="512.000000pt" viewBox="0 0 512.000000 512.000000"
 preserveAspectRatio="xMidYMid meet">
<metadata>
Created by potrace 1.15, written by Peter Selinger 2001-2017
</metadata>
<g transform="translate(0.000000,512.000000) scale(0.100000,-0.100000)"
fill="#000000" stroke="none">
<path d="M1036 3829 c-175 -41 -344 -212 -385 -389 -18 -76 -13 -220 9 -291
74 -242 290 -390 545 -376 179 10 321 91 419 239 103 155 113 383 25 549 -65
121 -183 218 -318 259 -68 22 -222 26 -295 9z"/>
<path d="M2392 3825 c-30 -7 -92 -31 -138 -54 -121 -60 -209 -150 -268 -274
-54 -111 -66 -167 -66 -297 0 -130 12 -186 66 -297 78 -163 226 -282 409 -328
77 -20 253 -20 330 0 228 58 402 232 460 460 20 77 20 253 0 330 -46 183 -165
331 -328 409 -50 24 -116 49 -145 55 -71 15 -254 12 -320 -4z"/>
<path d="M3800 3826 c-181 -51 -327 -201 -375 -386 -22 -85 -16 -230 14 -315
53 -150 177 -273 327 -326 82 -29 219 -36 308 -15 185 44 335 188 390 375 18
62 21 212 5 281 -41 179 -210 348 -389 389 -61 14 -225 12 -280 -3z"/>
<path d="M986 2339 c-147 -22 -312 -85 -437 -169 -97 -65 -226 -202 -287 -305
l-52 -89 0 -153 0 -153 438 0 437 0 18 49 c44 126 240 362 401 486 39 30 118
81 175 114 l103 59 -39 25 c-160 101 -344 148 -572 146 -69 -1 -153 -5 -185
-10z"/>
<path d="M3758 2339 c-79 -11 -172 -36 -243 -65 -66 -27 -165 -84 -165 -95 0
-4 38 -28 84 -54 230 -129 453 -350 558 -552 21 -41 38 -81 38 -89 0 -12 63
-14 440 -14 l440 0 0 149 c0 147 0 150 -31 207 -139 267 -413 457 -730 509
-100 16 -296 18 -391 4z"/>
<path d="M2370 2129 c-457 -44 -865 -287 -1059 -630 l-31 -56 0 -191 0 -192
1280 0 1280 0 0 192 0 191 -31 56 c-93 164 -256 325 -442 435 -273 162 -627
231 -997 195z"/>
</g>
</svg>
