<?xml version="1.0" standalone="no"?>
<!DOCTYPE svg PUBLIC "-//W3C//DTD SVG 20010904//EN"
 "http://www.w3.org/TR/2001/REC-SVG-20010904/DTD/svg10.dtd">
<svg version="1.0" xmlns="http://www.w3.org/2000/svg"
 width="512.000000pt" height="512.000000pt" viewBox="0 0 512.000000 512.000000"
 preserveAspectRatio="xMidYMid meet">
<metadata>
Created by potrace 1.15, written by Peter Selinger 2001-2017
</metadata>
<g transform="translate(0.000000,512.000000) scale(0.100000,-0.100000)"
fill="#ff4172" stroke="none">
<path d="M2185 5005 c-369 -41 -595 -101 -850 -225 -543 -266 -939 -756 -1136
-1408 -114 -380 -141 -835 -73 -1252 74 -458 281 -826 699 -1246 292 -292 553
-485 806 -592 296 -126 620 -182 1057 -182 340 0 742 38 911 86 191 54 352
155 532 334 222 221 377 453 583 875 148 302 241 563 287 809 43 225 36 550
-16 771 -11 50 -11 61 0 68 7 4 19 22 25 41 10 30 5 49 -45 191 -118 331 -201
511 -295 637 -64 84 -207 220 -352 333 -115 89 -524 377 -681 480 -221 144
-497 242 -790 280 -145 18 -490 18 -662 0z m209 -271 c3 -26 6 -85 6 -131 0
-80 2 -86 29 -114 52 -51 153 -34 187 33 13 26 16 53 12 145 l-4 113 32 0 c58
0 266 -30 359 -52 188 -43 370 -119 520 -216 85 -55 610 -450 717 -540 148
-124 257 -268 362 -479 93 -186 101 -212 82 -248 -21 -40 -20 -49 9 -134 32
-96 73 -279 81 -366 l6 -70 -138 3 -139 4 -27 -27 c-35 -35 -45 -85 -26 -133
19 -52 63 -72 159 -72 42 0 97 -3 123 -6 55 -8 55 -8 26 -170 -65 -360 -263
-826 -510 -1198 -276 -416 -469 -579 -783 -661 -157 -41 -474 -75 -699 -75
l-128 0 0 171 c0 98 -4 179 -10 190 -30 55 -140 64 -189 15 -26 -26 -26 -28
-29 -199 l-3 -172 -42 3 c-289 22 -594 106 -794 218 -455 254 -965 815 -1137
1252 -59 147 -116 443 -116 598 l0 54 151 0 151 0 28 28 c39 39 47 90 24 139
-28 56 -49 63 -213 63 l-144 0 7 95 c44 632 357 1246 812 1592 283 215 589
329 999 373 61 6 119 13 130 14 11 2 41 4 66 5 l46 1 7 -46z"/>
<path d="M2465 3713 c-157 -56 -270 -177 -310 -328 -18 -69 -20 -225 -4 -311
24 -134 112 -255 226 -310 50 -24 70 -28 148 -29 82 0 96 3 156 32 163 81 256
261 266 520 6 131 6 131 -25 197 -87 186 -291 288 -457 229z m176 -246 c18
-12 44 -38 57 -57 22 -32 24 -42 19 -130 -7 -126 -28 -182 -92 -247 -102 -101
-205 -73 -245 67 -35 121 -17 240 48 312 67 75 151 97 213 55z"/>
<path d="M3262 3441 c-71 -24 -121 -66 -157 -132 -27 -49 -30 -62 -30 -150 0
-93 1 -98 44 -184 35 -71 61 -107 131 -177 l87 -88 -41 0 c-80 0 -208 -49
-245 -94 -10 -12 -19 -12 -69 6 -31 11 -91 27 -132 35 -140 28 -626 14 -766
-23 -54 -14 -56 -13 -87 10 -38 29 -113 62 -161 72 l-35 6 23 32 c62 82 90
176 101 337 9 134 -4 180 -69 244 -66 66 -135 90 -261 89 -75 0 -99 -4 -146
-26 -57 -26 -98 -69 -118 -121 -52 -137 -24 -396 55 -512 14 -21 23 -39 21
-42 -3 -2 -33 -11 -67 -19 -93 -22 -164 -61 -225 -125 -101 -105 -148 -249
-149 -454 -1 -121 1 -133 24 -174 14 -25 41 -54 60 -65 34 -20 47 -21 366 -17
l331 3 6 -53 c4 -30 7 -70 7 -89 0 -40 29 -93 59 -109 31 -17 1308 -18 1384
-2 94 21 137 73 137 171 0 64 -11 62 301 59 267 -3 286 -2 324 16 74 37 80 61
77 290 -2 127 -8 223 -17 263 -41 176 -151 271 -334 288 l-69 7 53 53 c31 30
67 81 86 120 32 65 34 75 34 174 0 94 -3 111 -27 160 -39 80 -156 190 -231
218 -75 28 -198 29 -275 3z m205 -246 c21 -19 53 -48 72 -65 31 -29 33 -34 29
-81 -6 -56 -51 -131 -82 -137 -23 -5 -129 97 -156 149 -19 37 -24 63 -22 112
2 21 10 31 35 42 52 23 81 18 124 -20z m-1796 -12 c5 -5 12 -45 16 -89 6 -91
-5 -138 -44 -184 -53 -63 -85 -26 -104 118 -13 103 -7 158 19 166 25 7 102 0
113 -11z m117 -699 l50 -16 -18 -32 c-29 -49 -60 -164 -68 -251 l-7 -80 -265
-8 c-146 -4 -271 -5 -277 -2 -30 11 -2 186 42 261 28 47 85 100 124 116 77 30
339 38 419 12z m1951 -28 c16 -15 39 -50 50 -76 25 -57 47 -222 37 -275 l-7
-38 -112 6 c-62 4 -169 7 -238 7 l-126 0 -6 98 c-5 101 -21 145 -89 244 -23
34 -23 34 10 46 39 16 57 17 264 17 l187 0 30 -29z m-954 -25 c157 -18 251
-76 301 -185 21 -45 25 -74 31 -204 7 -164 4 -174 -47 -194 -23 -9 -1079 -12
-1088 -3 -2 2 -4 77 -5 167 -2 204 7 242 77 314 72 74 110 83 386 99 124 7
234 13 245 14 11 0 56 -3 100 -8z"/>
</g>
</svg>
