<?xml version="1.0" standalone="no"?>
<!DOCTYPE svg PUBLIC "-//W3C//DTD SVG 20010904//EN"
 "http://www.w3.org/TR/2001/REC-SVG-20010904/DTD/svg10.dtd">
<svg version="1.0" xmlns="http://www.w3.org/2000/svg"
 width="960.000000pt" height="480.000000pt" viewBox="0 0 960.000000 480.000000"
 preserveAspectRatio="xMidYMid meet">
<metadata>
Created by potrace 1.15, written by Peter Selinger 2001-2017
</metadata>
<g transform="translate(0.000000,480.000000) scale(0.100000,-0.100000)"
fill="white" stroke="none">
<path d="M2560 3135 c0 -75 -4 -135 -9 -135 -5 0 -11 4 -13 8 -1 4 -11 0 -20
-10 -17 -17 -16 -17 15 -13 24 4 19 0 -18 -13 -27 -10 -51 -24 -51 -30 -1 -7
-3 -42 -5 -79 l-3 -68 -6 70 -6 70 -2 -67 c-1 -46 -6 -68 -14 -69 -7 -1 -2 -5
12 -10 19 -6 16 -7 -15 -3 -22 2 -68 5 -102 6 -35 1 -60 4 -58 7 3 3 38 5 78
4 l72 -1 -60 8 c-58 6 -106 -1 -104 -17 1 -5 0 -100 -2 -213 l-3 -205 -6 205
-6 205 -2 -213 c-2 -168 1 -212 11 -206 7 5 7 1 -3 -12 -22 -30 -24 -30 -17
-9 7 20 7 20 -8 1 -15 -19 -15 -19 -15 -1 0 47 -24 295 -28 291 -2 -3 1 -75 8
-160 12 -145 14 -155 34 -159 21 -4 21 -4 -1 -6 -14 -1 -23 -9 -26 -23 -2 -13
-5 -1 -6 26 0 28 -6 112 -13 188 -11 133 -12 139 -35 144 -23 6 -91 0 -100 -9
-2 -3 -8 -87 -13 -188 l-9 -184 3 185 c1 110 0 161 -5 125 -12 -107 -10 -313
4 -318 10 -4 10 -6 0 -6 -7 -1 -14 -15 -14 -33 l-2 -33 -7 35 -7 35 -2 -32
c-1 -24 -6 -33 -18 -34 -10 -1 -4 -5 12 -9 l30 -8 -27 -1 -28 -1 -2 -127 -2
-128 -6 130 -6 130 -2 -127 c-2 -119 -3 -128 -21 -128 -14 0 -21 8 -23 28 -2
15 -8 27 -15 27 -6 0 -15 4 -20 9 -5 5 -3 6 5 2 8 -5 12 1 11 21 0 25 -1 26
-9 8 -7 -17 -9 -17 -9 -2 -1 13 -11 17 -43 19 l-43 1 45 7 c30 5 36 7 18 8
l-28 2 0 114 0 115 -37 30 c-44 36 -43 36 -69 15 -18 -14 -18 -15 4 -4 20 10
29 7 58 -15 l34 -26 -2 -117 -2 -117 -3 117 c-4 116 -4 117 -32 137 -27 19
-31 20 -65 6 -20 -8 -36 -18 -36 -21 0 -3 5 -2 10 1 7 4 9 -77 8 -237 l-2
-243 -6 225 -6 225 -2 -222 c-1 -170 -5 -223 -14 -224 -7 -1 -2 -5 12 -9 18
-6 20 -8 7 -9 -18 -1 -77 25 -77 35 0 2 10 -1 23 -7 18 -9 20 -9 10 2 -10 10
-14 93 -15 334 l-3 320 -5 -320 -5 -320 -3 316 c-2 357 6 326 -87 340 l-50 7
50 -2 c28 -1 59 -6 70 -10 l20 -8 -20 13 c-27 17 -125 29 -125 15 0 -6 -4 -4
-9 4 -6 8 -7 18 -5 22 10 16 -51 29 -135 29 -119 1 -118 1 -125 -17 -5 -12 -2
-15 9 -10 9 3 13 2 10 -4 -3 -6 -16 -10 -28 -10 -12 0 -29 -5 -37 -10 -12 -8
-10 -10 10 -7 17 2 15 0 -7 -6 -18 -6 -34 -19 -37 -31 -3 -12 -7 -100 -8 -196
l-2 -175 -6 185 -6 185 -2 -182 -2 -183 -30 0 c-27 0 -30 3 -30 31 0 17 -5 40
-12 52 -7 12 -17 51 -23 87 -6 36 -16 65 -22 65 -6 0 -15 4 -20 9 -5 5 -3 6 5
2 9 -5 12 3 11 31 -1 38 -1 38 -9 8 l-8 -30 -1 33 c-1 21 -6 32 -16 32 -11 0
-15 -12 -15 -45 0 -25 -3 -45 -8 -45 -4 0 -7 19 -6 43 2 25 0 30 -2 12 -3 -16
-8 -37 -11 -45 -4 -8 -11 -43 -18 -76 -9 -54 -9 -61 5 -56 10 3 8 0 -4 -10
-10 -8 -22 -32 -27 -54 l-8 -39 4 44 c2 30 1 40 -6 30 -5 -7 -9 -26 -9 -41 0
-26 0 -27 -85 -30 -85 -3 -85 -3 -106 27 l-20 30 25 -28 c14 -15 26 -24 26
-19 0 16 -90 111 -111 117 -36 12 -80 -44 -94 -118 -7 -33 -5 -37 11 -31 15 5
16 4 4 -4 -8 -6 -17 -9 -22 -6 -11 7 -28 -32 -28 -68 0 -56 -12 -109 -24 -105
-7 2 -13 47 -17 118 l-5 114 -2 -107 c-1 -60 -5 -108 -9 -108 -5 0 -8 54 -8
120 0 73 -4 124 -10 128 -6 4 -12 18 -12 31 -2 24 6 24 11 -1 2 -7 8 -24 15
-38 10 -23 11 -22 5 10 -9 47 -23 72 -36 64 -6 -4 -8 -3 -5 4 4 5 -9 43 -28
83 -19 41 -35 69 -35 64 0 -6 -5 -2 -11 8 -13 22 -29 22 -29 0 0 -14 -2 -15
-9 -5 -6 10 -10 4 -15 -18 -3 -18 -3 -36 0 -41 3 -5 0 -9 -5 -9 -6 0 -11 6
-11 14 0 8 -9 17 -19 21 -11 3 -25 13 -33 22 -11 14 -8 14 17 -2 l30 -18 -30
26 c-18 15 -34 22 -40 17 -13 -11 -55 -8 -75 5 -13 7 -13 6 -2 -7 8 -9 19 -15
27 -12 7 3 16 1 19 -4 3 -5 -8 -8 -24 -6 l-30 4 0 -425 0 -425 4800 0 4800 0
0 385 0 385 -29 0 c-36 0 -38 -7 -33 -102 3 -55 8 -76 16 -71 6 4 5 -1 -3 -10
-7 -9 -21 -17 -31 -17 -20 0 -32 -40 -30 -103 0 -21 -3 -43 -7 -50 -4 -7 -10
47 -13 118 l-6 130 -2 -139 -2 -138 28 17 c27 17 27 17 -3 -11 l-30 -29 -3
150 -3 150 -26 13 c-34 15 -46 15 -37 0 4 -6 -3 -4 -15 4 -17 12 -38 14 -86
10 -45 -3 -69 -1 -80 8 -12 10 -19 10 -27 2 -7 -7 -17 -12 -22 -12 -6 0 0 7
12 16 18 13 26 13 38 4 9 -9 36 -11 78 -8 35 3 72 1 82 -4 18 -9 18 -9 1 5
-13 11 -35 13 -82 9 -43 -3 -70 -1 -79 8 -12 10 -21 8 -45 -9 -16 -12 -42 -22
-58 -22 -26 -2 -26 -2 7 -9 l35 -7 -32 -3 c-18 -1 -39 -3 -45 -4 -10 -1 -14
-61 -16 -258 -2 -250 -3 -258 -22 -258 -16 0 -20 7 -21 38 l-2 37 -7 -40 -7
-40 -2 42 c0 23 -7 44 -13 46 -10 4 -10 6 0 6 7 1 12 15 11 39 l-2 37 -7 -35
-7 -35 -2 36 c-1 34 -4 37 -38 43 -21 3 -56 7 -78 8 -33 1 -30 3 20 8 60 7 60
7 13 8 l-48 2 -2 43 -1 42 -6 -45 -7 -45 -8 60 c-5 33 -6 227 -3 430 4 204 3
375 -1 381 -25 38 -156 6 -165 -39 -3 -16 -5 -13 -6 9 0 16 -7 36 -13 43 -10
11 -10 13 0 7 9 -6 12 16 12 94 0 97 -11 147 -30 135 -5 -3 -12 0 -16 6 -4 8
-3 9 4 5 9 -5 11 25 10 116 l-2 123 -6 -115 -6 -115 -2 112 c-2 111 -2 113
-24 109 -26 -3 -26 -4 -30 -148 -2 -62 1 -94 7 -90 6 3 2 -4 -8 -15 -15 -17
-18 -37 -17 -119 1 -55 -2 -109 -7 -121 -5 -13 -7 27 -4 100 2 71 8 128 15
137 10 13 9 13 -6 1 -15 -11 -18 -30 -18 -115 0 -141 -2 -146 -59 -148 -41 -1
-40 -2 19 -8 l65 -7 -62 -1 -63 -2 -2 -177 -2 -178 -6 180 -6 180 -2 -177 c-2
-162 -4 -178 -19 -179 -15 0 -15 -2 2 -8 19 -8 19 -8 -2 -15 l-23 -7 -2 -332
c-2 -282 -3 -297 -5 -103 l-3 229 -62 -7 c-33 -3 -78 -6 -99 -6 -30 0 -39 -4
-39 -17 0 -15 -2 -16 -10 -3 -5 8 -10 10 -10 3 0 -8 -15 -7 -56 3 -31 9 -72
14 -92 12 l-37 -3 -3 -187 c-1 -104 -6 -188 -10 -188 -4 0 -7 84 -6 187 l1
188 -6 -167 c-3 -91 -9 -170 -13 -174 -5 -4 -8 2 -8 14 0 14 -6 22 -17 23 -15
0 -15 2 2 9 17 7 17 9 3 9 -14 1 -18 11 -20 49 l-1 47 -7 -45 -7 -45 -1 43 -2
42 -47 2 -48 1 50 7 c38 5 42 7 18 8 -33 2 -33 2 -33 55 0 33 -6 61 -16 73
-15 18 -15 18 -5 -3 6 -12 10 -46 9 -75 l-1 -53 -6 61 c-3 34 -13 69 -21 79
-9 11 -10 16 -2 11 9 -5 12 4 11 36 l-2 43 -7 -35 -7 -35 -2 31 c-1 33 -15 42
-71 45 -15 1 -6 5 20 9 l45 8 -44 -2 c-36 -1 -45 -5 -47 -22 -2 -11 -8 -31
-14 -45 -9 -21 -10 -20 -5 11 l4 35 -11 -32 c-6 -18 -16 -34 -22 -34 -6 -1 3
-5 19 -9 l30 -8 -27 -1 -28 -1 0 -195 c0 -139 -3 -195 -11 -195 -9 0 -11 54
-7 198 2 108 1 184 -3 167 -4 -16 -8 92 -10 240 -3 252 -4 241 -9 -170 l-5
-440 -3 437 c-2 406 -3 437 -19 442 -10 4 -29 16 -43 27 -24 20 -23 20 15 -1
l40 -22 -27 22 c-27 21 -28 25 -30 123 l-2 102 -6 -100 -6 -100 -2 103 c-3
152 -30 127 -34 -32 l-2 -71 -6 85 -5 85 -5 -91 c-4 -78 -3 -91 10 -87 8 2 6
-1 -5 -8 -24 -16 -23 -16 -77 -19 l-43 -3 50 -7 50 -7 -47 -1 c-43 -2 -47 -4
-50 -29 -2 -16 -9 -29 -15 -29 -7 -1 -25 -3 -40 -4 -24 -2 -22 -4 12 -10 l40
-7 -42 -2 -43 -1 -2 -247 -2 -248 -6 245 -6 245 -2 -242 -2 -243 -35 0 c-33 0
-35 2 -35 35 0 31 -4 36 -44 55 -25 11 -51 20 -58 20 -7 0 -20 5 -28 11 -21
15 36 2 75 -17 21 -10 26 -11 17 -2 -7 7 -27 18 -45 24 -26 9 -33 18 -38 45
l-6 34 -5 -35 -5 -35 -1 33 c-2 30 -5 32 -39 33 l-38 2 40 7 40 7 -45 2 c-25
0 -60 5 -77 10 -20 6 -35 6 -38 0 -4 -5 -25 -7 -48 -4 l-42 5 39 -10 c29 -8
43 -7 55 2 14 12 15 11 2 -5 -11 -13 -23 -17 -43 -13 -58 12 -58 13 -60 -223
l-2 -216 -6 220 -6 220 -2 -222 c-1 -141 -6 -223 -12 -223 -6 0 -10 45 -10
114 0 95 -3 116 -17 127 -11 10 -14 10 -9 2 11 -19 1 -16 -15 4 -10 11 -10 14
-1 9 14 -8 14 0 2 29 l-9 20 -1 -20 c-1 -19 -2 -18 -10 3 -9 21 -30 31 -30 14
0 -4 -13 -9 -30 -10 l-30 -2 -2 62 -1 63 -7 -65 -7 -65 -1 66 -2 66 -46 7
c-26 3 -61 6 -79 6 -18 0 -38 7 -45 15 -13 16 -102 19 -150 6 -25 -7 -25 -7
-30 -156 l-6 -150 -2 146 c-2 166 -2 168 73 177 25 2 47 8 50 12 9 14 -98 -10
-116 -26 -17 -15 -19 -33 -19 -161 l0 -143 -27 -1 c-22 -2 -19 -3 12 -9 l40
-7 -42 -2 c-24 0 -43 -5 -43 -11 0 -5 -3 -9 -7 -9 -5 1 -17 0 -28 -1 -15 -2
-12 -4 10 -10 l30 -8 -27 -1 c-27 -1 -28 -3 -30 -58 l-1 -58 -7 65 c-4 36 -8
97 -9 137 0 40 -8 98 -16 129 -17 66 -28 83 -20 33 5 -32 4 -31 -8 7 -8 23
-17 47 -21 55 -4 8 0 5 8 -5 16 -20 22 -11 8 12 -12 17 -117 33 -147 22 -16
-6 -25 -5 -29 3 -4 7 -4 1 -1 -13 2 -14 0 -32 -5 -40 -7 -11 -10 -5 -10 22 0
25 -6 40 -17 47 -10 6 -12 11 -5 11 9 0 12 26 10 103 l-2 102 -6 -100 -6 -100
-2 98 -2 97 -32 1 -33 1 30 8 c17 4 22 8 13 9 -12 1 -18 10 -19 29 l-1 27 -8
-30 -8 -30 -1 27 c-1 23 -7 29 -43 39 -23 6 -58 8 -78 5 -19 -3 -30 -2 -25 2
7 5 7 18 -1 41 -7 22 -13 29 -17 20 -4 -10 -6 -9 -6 5 -1 12 -6 16 -17 12 -9
-3 -22 -6 -30 -6 -8 0 -14 -6 -14 -14 0 -8 -7 -16 -15 -20 -8 -3 -24 -20 -35
-38 -17 -29 -20 -51 -20 -175 0 -108 -3 -143 -12 -143 -7 -1 -2 -7 12 -16 22
-13 22 -14 3 -9 -12 3 -24 1 -28 -5 -7 -11 -75 -12 -120 0 -20 5 -4 7 45 5 41
-2 62 -2 45 1 -16 2 -45 7 -62 10 l-32 5 -3 157 c-2 119 -6 156 -16 154 -6 -1
-11 3 -10 9 2 6 -3 14 -11 17 -9 3 -11 0 -6 -9 5 -8 -6 -1 -23 15 -32 30 -44
49 -17 26 27 -22 16 5 -13 33 -23 22 -37 27 -79 27 -43 0 -51 3 -56 21 -3 12
-10 18 -16 15 -5 -4 -13 -1 -17 5 -4 8 -3 9 4 5 14 -9 14 11 1 39 -9 19 -9 18
-5 -3 2 -12 0 -20 -5 -16 -5 3 -9 12 -9 20 0 8 -10 19 -22 24 -18 7 -19 9 -5
9 15 1 17 11 15 84 l-2 82 -6 -80 -6 -80 -2 78 c-2 92 -22 105 -22 15 0 -35
-5 -70 -10 -78 -9 -13 -10 -13 -10 0 -1 8 -8 -3 -16 -25 -27 -71 -29 -79 -13
-70 8 5 11 4 6 -1 -5 -5 -14 -9 -20 -9 -12 0 -31 -108 -27 -150 9 -103 9 -315
1 -315 -7 0 -11 50 -11 144 0 80 -4 156 -10 171 -7 17 -7 24 0 20 15 -9 12 1
-10 45 -11 22 -20 47 -20 57 0 14 -2 15 -9 5 -6 -10 -10 -8 -14 10 -4 12 -7
33 -7 46 0 12 -4 22 -9 22 -12 0 -21 -26 -21 -63 0 -18 -5 -39 -10 -47 -8 -12
-10 -12 -10 -1 0 32 -61 -109 -71 -166 -8 -43 -16 -63 -27 -66 -10 -2 -5 -3
11 -2 15 1 27 -2 27 -7 0 -4 -16 -8 -35 -8 -34 0 -35 -2 -36 -37 l-2 -38 -7
35 -7 35 -2 -32 c-1 -36 -10 -39 -86 -26 -36 6 -38 7 -15 14 24 7 24 7 3 8
-23 1 -23 1 -23 181 l0 180 -92 1 c-72 1 -86 3 -63 10 17 5 59 7 95 4 63 -4
63 -4 15 5 -63 11 -144 3 -215 -21 -30 -10 -48 -18 -39 -19 9 0 36 7 60 15 24
9 39 11 33 5 -6 -6 -33 -17 -60 -24 -59 -15 -68 -37 -59 -143 l6 -73 -77 0
c-42 0 -94 -5 -115 -12 -37 -10 -39 -14 -39 -50 0 -34 -3 -38 -24 -38 -14 0
-27 4 -30 9 -3 4 6 6 19 3 23 -4 25 -2 23 34 -1 37 -1 38 -5 7 -4 -29 -23 -48
-23 -23 0 5 -3 9 -7 9 -5 -1 -34 -1 -67 0 l-58 1 6 34 c9 48 -12 66 -76 66
-28 0 -49 2 -46 5 8 8 70 9 98 1 22 -6 23 -5 7 5 -11 6 -34 11 -53 11 l-34 0
-2 87 -2 86 -6 -90 -6 -90 -2 88 -2 87 -109 0 -109 0 -6 -27 c-3 -16 -4 -130
-1 -254 2 -124 0 -238 -5 -255 l-8 -29 -1 28 c-1 17 -7 27 -16 27 -12 0 -15
21 -17 118 l-2 117 -6 -120 -6 -120 -2 118 c-2 114 -3 117 -24 118 -22 1 -22
1 2 9 14 4 19 8 13 9 -10 1 -14 48 -15 194 l-2 192 -6 -195 -6 -195 -2 197 -2
196 -59 -5 c-41 -4 -61 -2 -66 7 -5 9 -4 11 3 6 7 -4 12 -2 12 3 0 6 -13 11
-28 11 -21 0 -32 -7 -41 -26 -6 -15 -9 -29 -6 -32 3 -3 5 -1 5 4 0 6 7 19 15
30 13 17 13 15 0 -18 -8 -21 -13 -56 -11 -80 4 -47 -6 -68 -35 -68 -18 0 -19
-10 -19 -165 l0 -165 -82 -2 -83 -2 85 -6 85 -6 -82 -2 -83 -2 0 -100 c0 -92
-8 -118 -26 -88 -4 7 -3 8 4 4 9 -5 11 19 10 91 l-2 98 -3 -87 -4 -88 -37 0
c-20 0 -44 -5 -52 -11 -12 -9 -11 -10 8 -6 12 3 20 1 16 -4 -3 -5 -11 -9 -18
-9 -10 0 -16 -24 -22 -77 l-7 -78 -13 85 c-8 59 -12 220 -11 525 l2 440 5
-445 5 -445 0 445 0 444 -25 7 c-14 4 -19 7 -12 8 6 1 12 6 12 12 0 5 -4 7
-10 4 -5 -3 -10 -2 -10 3 0 6 -17 15 -37 21 l-38 11 35 -5 c27 -4 31 -2 18 6
-16 9 -18 28 -20 142 l-2 132 -6 -135 -5 -135 -7 79 c-5 43 -8 105 -8 138 0
32 -4 58 -10 58 -6 0 -10 -52 -10 -135z"/>
<path d="M2397 1513 c1322 -2 3484 -2 4805 0 1322 1 241 2 -2402 2 -2643 0
-3724 -1 -2403 -2z"/>
</g>
</svg>
